<mxfile host="app.diagrams.net" agent="Mozilla/5.0 (X11; Linux x86_64; rv:139.0) Gecko/20100101 Firefox/139.0" version="28.2.5">
  <diagram name="Page-1" id="gqXE5cYQTpW-kbybbJwH">
    <mxGraphModel dx="562" dy="1704" grid="1" gridSize="10" guides="1" tooltips="1" connect="1" arrows="1" fold="1" page="1" pageScale="1" pageWidth="827" pageHeight="1169" math="0" shadow="0">
      <root>
        <mxCell id="0" />
        <mxCell id="1" parent="0" />
        <mxCell id="VkIbsHdRt6CUS8jdPbAn-1" value="" style="group" vertex="1" connectable="0" parent="1">
          <mxGeometry x="373.25" y="220" width="263" height="244" as="geometry" />
        </mxCell>
        <mxCell id="VkIbsHdRt6CUS8jdPbAn-2" value="" style="endArrow=classic;html=1;rounded=0;strokeColor=light-dark(#000000,#FF3333);" edge="1" parent="VkIbsHdRt6CUS8jdPbAn-1">
          <mxGeometry width="50" height="50" relative="1" as="geometry">
            <mxPoint x="15" y="230" as="sourcePoint" />
            <mxPoint x="15" y="30" as="targetPoint" />
          </mxGeometry>
        </mxCell>
        <mxCell id="VkIbsHdRt6CUS8jdPbAn-3" value="" style="endArrow=classic;html=1;rounded=0;fillColor=#a20025;strokeColor=light-dark(#000000,#3333FF);" edge="1" parent="VkIbsHdRt6CUS8jdPbAn-1">
          <mxGeometry width="50" height="50" relative="1" as="geometry">
            <mxPoint x="15" y="230" as="sourcePoint" />
            <mxPoint x="215" y="230" as="targetPoint" />
          </mxGeometry>
        </mxCell>
        <mxCell id="VkIbsHdRt6CUS8jdPbAn-4" value="&lt;font style=&quot;color: light-dark(rgb(0, 0, 0), rgb(51, 51, 255));&quot; face=&quot;Times New Roman&quot;&gt;x&lt;/font&gt;" style="text;html=1;align=center;verticalAlign=middle;resizable=0;points=[];autosize=1;strokeColor=none;fillColor=none;" vertex="1" parent="VkIbsHdRt6CUS8jdPbAn-1">
          <mxGeometry x="208" y="214" width="30" height="30" as="geometry" />
        </mxCell>
        <mxCell id="VkIbsHdRt6CUS8jdPbAn-5" value="&lt;font style=&quot;color: light-dark(rgb(0, 0, 0), rgb(255, 51, 51));&quot; face=&quot;Times New Roman&quot;&gt;y&lt;/font&gt;" style="text;html=1;align=center;verticalAlign=middle;resizable=0;points=[];autosize=1;strokeColor=none;fillColor=none;" vertex="1" parent="VkIbsHdRt6CUS8jdPbAn-1">
          <mxGeometry width="30" height="30" as="geometry" />
        </mxCell>
        <mxCell id="VkIbsHdRt6CUS8jdPbAn-6" value="" style="shape=waypoint;sketch=0;size=6;pointerEvents=1;points=[];fillColor=none;resizable=0;rotatable=0;perimeter=centerPerimeter;snapToPoint=1;" vertex="1" parent="VkIbsHdRt6CUS8jdPbAn-1">
          <mxGeometry x="5" y="219" width="20" height="20" as="geometry" />
        </mxCell>
        <mxCell id="VkIbsHdRt6CUS8jdPbAn-7" value="" style="verticalLabelPosition=bottom;shadow=0;dashed=0;align=center;html=1;verticalAlign=top;strokeWidth=1;shape=mxgraph.mockup.markup.line;strokeColor=light-dark(#000000,#B3B3B3);rotation=-45;direction=west;" vertex="1" parent="VkIbsHdRt6CUS8jdPbAn-1">
          <mxGeometry x="-12.49" y="148.49" width="196" height="20" as="geometry" />
        </mxCell>
        <mxCell id="VkIbsHdRt6CUS8jdPbAn-10" value="" style="verticalLabelPosition=bottom;shadow=0;dashed=0;align=center;html=1;verticalAlign=top;strokeWidth=1;shape=mxgraph.mockup.markup.line;strokeColor=light-dark(#000000,#B3B3B3);rotation=-45;direction=west;" vertex="1" parent="VkIbsHdRt6CUS8jdPbAn-1">
          <mxGeometry x="-12.49" y="88.49" width="196" height="20" as="geometry" />
        </mxCell>
        <mxCell id="VkIbsHdRt6CUS8jdPbAn-12" value="" style="verticalLabelPosition=bottom;shadow=0;dashed=0;align=center;html=1;verticalAlign=top;strokeWidth=1;shape=mxgraph.mockup.markup.line;strokeColor=light-dark(#999999,#FFFFFF);rotation=-45;direction=west;" vertex="1" parent="VkIbsHdRt6CUS8jdPbAn-1">
          <mxGeometry x="-11.89" y="35.43" width="197" height="20" as="geometry" />
        </mxCell>
        <mxCell id="VkIbsHdRt6CUS8jdPbAn-14" value="" style="shape=waypoint;sketch=0;size=6;pointerEvents=1;points=[];fillColor=none;resizable=0;rotatable=0;perimeter=centerPerimeter;snapToPoint=1;" vertex="1" parent="VkIbsHdRt6CUS8jdPbAn-1">
          <mxGeometry x="5" y="159" width="20" height="20" as="geometry" />
        </mxCell>
        <mxCell id="VkIbsHdRt6CUS8jdPbAn-15" value="" style="shape=waypoint;sketch=0;size=6;pointerEvents=1;points=[];fillColor=none;resizable=0;rotatable=0;perimeter=centerPerimeter;snapToPoint=1;" vertex="1" parent="VkIbsHdRt6CUS8jdPbAn-1">
          <mxGeometry x="5" y="106" width="20" height="20" as="geometry" />
        </mxCell>
        <mxCell id="VkIbsHdRt6CUS8jdPbAn-16" value="" style="endArrow=openThin;html=1;rounded=0;exitX=0.494;exitY=0.5;exitDx=0;exitDy=0;exitPerimeter=0;entryX=0.496;entryY=0.472;entryDx=0;entryDy=0;entryPerimeter=0;dashed=1;endFill=0;strokeColor=light-dark(#000000,#B3B3B3);" edge="1" parent="VkIbsHdRt6CUS8jdPbAn-1">
          <mxGeometry width="50" height="50" relative="1" as="geometry">
            <mxPoint x="150.00338095116632" y="92.22661904883367" as="sourcePoint" />
            <mxPoint x="150.08823376490847" y="32.933725830020336" as="targetPoint" />
          </mxGeometry>
        </mxCell>
        <mxCell id="VkIbsHdRt6CUS8jdPbAn-22" value="" style="endArrow=openThin;html=1;rounded=0;exitX=0.846;exitY=0.48;exitDx=0;exitDy=0;exitPerimeter=0;entryX=0.848;entryY=0.513;entryDx=0;entryDy=0;entryPerimeter=0;dashed=1;endFill=0;strokeColor=light-dark(#000000,#B3B3B3);" edge="1" parent="VkIbsHdRt6CUS8jdPbAn-1" source="VkIbsHdRt6CUS8jdPbAn-7" target="VkIbsHdRt6CUS8jdPbAn-10">
          <mxGeometry width="50" height="50" relative="1" as="geometry">
            <mxPoint x="40.003380951166264" y="199.29661904883363" as="sourcePoint" />
            <mxPoint x="40" y="150" as="targetPoint" />
          </mxGeometry>
        </mxCell>
        <mxCell id="VkIbsHdRt6CUS8jdPbAn-25" value="" style="endArrow=openThin;html=1;rounded=0;exitX=0.846;exitY=0.48;exitDx=0;exitDy=0;exitPerimeter=0;entryX=0.848;entryY=0.513;entryDx=0;entryDy=0;entryPerimeter=0;dashed=1;endFill=0;strokeColor=light-dark(#000000,#B3B3B3);" edge="1" parent="VkIbsHdRt6CUS8jdPbAn-1">
          <mxGeometry width="50" height="50" relative="1" as="geometry">
            <mxPoint x="37" y="153" as="sourcePoint" />
            <mxPoint x="36" y="97" as="targetPoint" />
          </mxGeometry>
        </mxCell>
        <mxCell id="VkIbsHdRt6CUS8jdPbAn-26" value="" style="endArrow=openThin;html=1;rounded=0;exitX=0.494;exitY=0.5;exitDx=0;exitDy=0;exitPerimeter=0;entryX=0.06;entryY=0.454;entryDx=0;entryDy=0;entryPerimeter=0;dashed=1;endFill=0;strokeColor=light-dark(#000000,#B3B3B3);" edge="1" parent="VkIbsHdRt6CUS8jdPbAn-1" target="VkIbsHdRt6CUS8jdPbAn-12">
          <mxGeometry width="50" height="50" relative="1" as="geometry">
            <mxPoint x="150.00338095116626" y="44.64661904883366" as="sourcePoint" />
            <mxPoint x="150.0882337649084" y="-14.646274169979677" as="targetPoint" />
          </mxGeometry>
        </mxCell>
        <mxCell id="VkIbsHdRt6CUS8jdPbAn-32" value="&lt;font face=&quot;Times New Roman&quot; style=&quot;color: light-dark(rgb(0, 0, 0), rgb(179, 179, 179));&quot;&gt;c = 1&lt;/font&gt;" style="text;html=1;align=center;verticalAlign=middle;resizable=0;points=[];autosize=1;strokeColor=none;fillColor=none;fontSize=11;" vertex="1" parent="VkIbsHdRt6CUS8jdPbAn-1">
          <mxGeometry x="146.75" y="2.930000000000007" width="50" height="30" as="geometry" />
        </mxCell>
        <mxCell id="VkIbsHdRt6CUS8jdPbAn-33" value="&lt;font face=&quot;Times New Roman&quot; style=&quot;color: light-dark(rgb(0, 0, 0), rgb(179, 179, 179));&quot;&gt;c = 0&lt;/font&gt;" style="text;html=1;align=center;verticalAlign=middle;resizable=0;points=[];autosize=1;strokeColor=none;fillColor=none;fontSize=11;" vertex="1" parent="VkIbsHdRt6CUS8jdPbAn-1">
          <mxGeometry x="146.75" y="58.49" width="50" height="30" as="geometry" />
        </mxCell>
        <mxCell id="n88alifhTt3oK_VPndhT-19" value="" style="verticalLabelPosition=bottom;shadow=0;dashed=0;align=center;html=1;verticalAlign=top;strokeWidth=1;shape=mxgraph.mockup.markup.line;strokeColor=#999999;rotation=-15;direction=west;" parent="1" vertex="1">
          <mxGeometry x="416.25" y="101.53" width="220" height="20" as="geometry" />
        </mxCell>
        <mxCell id="n88alifhTt3oK_VPndhT-20" value="" style="verticalLabelPosition=bottom;shadow=0;dashed=0;align=center;html=1;verticalAlign=top;strokeWidth=1;shape=mxgraph.mockup.markup.line;strokeColor=#999999;rotation=-30;direction=west;" parent="1" vertex="1">
          <mxGeometry x="405.26" y="75" width="220" height="20" as="geometry" />
        </mxCell>
        <mxCell id="n88alifhTt3oK_VPndhT-21" value="" style="verticalLabelPosition=bottom;shadow=0;dashed=0;align=center;html=1;verticalAlign=top;strokeWidth=1;shape=mxgraph.mockup.markup.line;strokeColor=light-dark(#999999,#FFFFFF);rotation=-45;direction=west;" parent="1" vertex="1">
          <mxGeometry x="387.78" y="52.22" width="220" height="20" as="geometry" />
        </mxCell>
        <mxCell id="n88alifhTt3oK_VPndhT-27" value="" style="verticalLabelPosition=bottom;shadow=0;dashed=0;align=center;html=1;verticalAlign=top;strokeWidth=1;shape=mxgraph.mockup.markup.line;strokeColor=#999999;rotation=-60;direction=west;" parent="1" vertex="1">
          <mxGeometry x="365" y="34.74" width="220" height="20" as="geometry" />
        </mxCell>
        <mxCell id="n88alifhTt3oK_VPndhT-28" value="" style="verticalLabelPosition=bottom;shadow=0;dashed=0;align=center;html=1;verticalAlign=top;strokeWidth=1;shape=mxgraph.mockup.markup.line;strokeColor=#999999;rotation=-75;direction=west;" parent="1" vertex="1">
          <mxGeometry x="338.47" y="23.75" width="220" height="20" as="geometry" />
        </mxCell>
        <mxCell id="n88alifhTt3oK_VPndhT-1" value="" style="group" parent="1" vertex="1" connectable="0">
          <mxGeometry x="405" y="-89" width="253" height="244" as="geometry" />
        </mxCell>
        <mxCell id="n88alifhTt3oK_VPndhT-2" value="" style="endArrow=classic;html=1;rounded=0;strokeColor=light-dark(#000000,#FF3333);" parent="n88alifhTt3oK_VPndhT-1" edge="1">
          <mxGeometry width="50" height="50" relative="1" as="geometry">
            <mxPoint x="15" y="230" as="sourcePoint" />
            <mxPoint x="15" y="30" as="targetPoint" />
          </mxGeometry>
        </mxCell>
        <mxCell id="n88alifhTt3oK_VPndhT-3" value="" style="endArrow=classic;html=1;rounded=0;fillColor=#a20025;strokeColor=light-dark(#000000,#3333FF);" parent="n88alifhTt3oK_VPndhT-1" edge="1">
          <mxGeometry width="50" height="50" relative="1" as="geometry">
            <mxPoint x="15" y="230" as="sourcePoint" />
            <mxPoint x="215" y="230" as="targetPoint" />
          </mxGeometry>
        </mxCell>
        <mxCell id="n88alifhTt3oK_VPndhT-4" value="&lt;font style=&quot;color: light-dark(rgb(0, 0, 0), rgb(51, 51, 255));&quot; face=&quot;Times New Roman&quot;&gt;x&lt;/font&gt;" style="text;html=1;align=center;verticalAlign=middle;resizable=0;points=[];autosize=1;strokeColor=none;fillColor=none;" parent="n88alifhTt3oK_VPndhT-1" vertex="1">
          <mxGeometry x="208" y="214" width="30" height="30" as="geometry" />
        </mxCell>
        <mxCell id="n88alifhTt3oK_VPndhT-5" value="&lt;font style=&quot;color: light-dark(rgb(0, 0, 0), rgb(255, 51, 51));&quot; face=&quot;Times New Roman&quot;&gt;y&lt;/font&gt;" style="text;html=1;align=center;verticalAlign=middle;resizable=0;points=[];autosize=1;strokeColor=none;fillColor=none;" parent="n88alifhTt3oK_VPndhT-1" vertex="1">
          <mxGeometry width="30" height="30" as="geometry" />
        </mxCell>
        <mxCell id="n88alifhTt3oK_VPndhT-6" value="" style="shape=waypoint;sketch=0;size=6;pointerEvents=1;points=[];fillColor=none;resizable=0;rotatable=0;perimeter=centerPerimeter;snapToPoint=1;" parent="n88alifhTt3oK_VPndhT-1" vertex="1">
          <mxGeometry x="5" y="219" width="20" height="20" as="geometry" />
        </mxCell>
        <mxCell id="n88alifhTt3oK_VPndhT-35" value="&lt;font face=&quot;Times New Roman&quot;&gt;m = 1&amp;nbsp;= tan(45)&lt;/font&gt;" style="text;html=1;align=center;verticalAlign=middle;resizable=0;points=[];autosize=1;strokeColor=none;fillColor=none;fontSize=11;" parent="n88alifhTt3oK_VPndhT-1" vertex="1">
          <mxGeometry x="125" y="49" width="90" height="30" as="geometry" />
        </mxCell>
        <mxCell id="n88alifhTt3oK_VPndhT-36" value="&lt;font face=&quot;Times New Roman&quot; style=&quot;color: light-dark(rgb(0, 0, 0), rgb(179, 179, 179));&quot;&gt;m = tan(60)&lt;/font&gt;" style="text;html=1;align=center;verticalAlign=middle;resizable=0;points=[];autosize=1;strokeColor=none;fillColor=none;fontSize=11;" parent="n88alifhTt3oK_VPndhT-1" vertex="1">
          <mxGeometry x="90" y="9" width="80" height="30" as="geometry" />
        </mxCell>
        <mxCell id="n88alifhTt3oK_VPndhT-46" value="&lt;font face=&quot;Times New Roman&quot; style=&quot;color: light-dark(rgb(0, 0, 0), rgb(179, 179, 179));&quot;&gt;m = tan(30)&lt;/font&gt;" style="text;html=1;align=center;verticalAlign=middle;resizable=0;points=[];autosize=1;strokeColor=none;fillColor=none;fontSize=11;" parent="n88alifhTt3oK_VPndhT-1" vertex="1">
          <mxGeometry x="173" y="89" width="80" height="30" as="geometry" />
        </mxCell>
        <mxCell id="n88alifhTt3oK_VPndhT-45" value="&lt;font face=&quot;Times New Roman&quot; style=&quot;color: light-dark(rgb(0, 0, 0), rgb(179, 179, 179));&quot;&gt;m = tan(75)&lt;/font&gt;" style="text;html=1;align=center;verticalAlign=middle;resizable=0;points=[];autosize=1;strokeColor=none;fillColor=none;fontSize=11;" parent="1" vertex="1">
          <mxGeometry x="445" y="-100" width="80" height="30" as="geometry" />
        </mxCell>
        <mxCell id="n88alifhTt3oK_VPndhT-47" value="&lt;font face=&quot;Times New Roman&quot; style=&quot;color: light-dark(rgb(0, 0, 0), rgb(179, 179, 179));&quot;&gt;m = tan(15)&lt;/font&gt;" style="text;html=1;align=center;verticalAlign=middle;resizable=0;points=[];autosize=1;strokeColor=none;fillColor=none;fontSize=11;" parent="1" vertex="1">
          <mxGeometry x="605" y="50" width="80" height="30" as="geometry" />
        </mxCell>
        <mxCell id="VkIbsHdRt6CUS8jdPbAn-31" value="&lt;font face=&quot;Times New Roman&quot;&gt;c = 2&lt;/font&gt;" style="text;html=1;align=center;verticalAlign=middle;resizable=0;points=[];autosize=1;strokeColor=none;fillColor=none;fontSize=11;" vertex="1" parent="1">
          <mxGeometry x="520" y="170" width="50" height="30" as="geometry" />
        </mxCell>
      </root>
    </mxGraphModel>
  </diagram>
</mxfile>
